HIERARCHY
ROOT Hips
{
	OFFSET 0.000000 0.000000 0.000000
	CHANNELS 6 Xposition Yposition Zposition Zrotation Xrotation Yrotation
	JOINT Spine
	{
		OFFSET 0.000001 1.152660 1.729000
		CHANNELS 3 Zrotation Xrotation Yrotation
		JOINT Spine1
		{
			OFFSET 0.000001 0.400320 2.270310
			CHANNELS 3 Zrotation Xrotation Yrotation
			JOINT Spine2
			{
				OFFSET 0.000001 0.200920 2.296560
				CHANNELS 3 Zrotation Xrotation Yrotation
				JOINT Spine3
				{
					OFFSET 0.000001 -0.000000 2.305330
					CHANNELS 3 Zrotation Xrotation Yrotation
					JOINT Neck
					{
						OFFSET 0.000002 -0.864494 6.051490
						CHANNELS 3 Zrotation Xrotation Yrotation
						JOINT Head
						{
							OFFSET 0.000001 -0.550431 3.121671
							CHANNELS 3 Zrotation Xrotation Yrotation
							End Site
							{
								OFFSET 0.000001 -0.000003 3.731750
							}
						}
					}
					JOINT RightShoulder
					{
						OFFSET -0.788279 -1.313802 4.256720
						CHANNELS 3 Zrotation Xrotation Yrotation
						JOINT RightArm
						{
							OFFSET -3.915130 0.000002 0.000003
							CHANNELS 3 Zrotation Xrotation Yrotation
							JOINT RightForeArm
							{
								OFFSET -6.914911 0.000003 0.000002
								CHANNELS 3 Zrotation Xrotation Yrotation
								JOINT RightHand
								{
									OFFSET -6.096219 0.000002 0.000002
									CHANNELS 3 Zrotation Xrotation Yrotation
									JOINT RightHandEnd
									{
										OFFSET -1.749950 0.000001 0.000001
										CHANNELS 3 Zrotation Xrotation Yrotation
										End Site
										{
											OFFSET -1.749950 0.000001 0.000001
										}
									}
									JOINT RightHandThumb1
									{
										OFFSET -0.699980 -1.166630 -0.466650
										CHANNELS 3 Zrotation Xrotation Yrotation
										End Site
										{
											OFFSET -1.690319 -0.452919 0.000001
										}
									}
								}
							}
						}
					}
					JOINT LeftShoulder
					{
						OFFSET 0.788281 -1.313803 4.256720
						CHANNELS 3 Zrotation Xrotation Yrotation
						JOINT LeftArm
						{
							OFFSET 3.915130 -0.000002 -0.000003
							CHANNELS 3 Zrotation Xrotation Yrotation
							JOINT LeftForeArm
							{
								OFFSET 6.914909 -0.000003 -0.000002
								CHANNELS 3 Zrotation Xrotation Yrotation
								JOINT LeftHand
								{
									OFFSET 6.096218 -0.000002 -0.000002
									CHANNELS 3 Zrotation Xrotation Yrotation
									JOINT LeftHandEnd
									{
										OFFSET 1.749950 -0.000001 -0.000001
										CHANNELS 3 Zrotation Xrotation Yrotation
										End Site
										{
											OFFSET 1.749950 -0.000001 -0.000001
										}
									}
									JOINT LeftHandThumb1
									{
										OFFSET 0.699980 -1.166630 -0.466650
										CHANNELS 3 Zrotation Xrotation Yrotation
										End Site
										{
											OFFSET 1.690319 -0.452921 -0.000001
										}
									}
								}
							}
						}
					}
				}
			}
		}
	}
	JOINT RightUpLeg
	{
		OFFSET -2.338570 0.000001 -0.683179
		CHANNELS 3 Zrotation Xrotation Yrotation
		JOINT RightLeg
		{
			OFFSET -0.000005 0.000007 -10.744960
			CHANNELS 3 Zrotation Xrotation Yrotation
			JOINT RightFoot
			{
				OFFSET -0.000005 0.000007 -10.930851
				CHANNELS 3 Zrotation Xrotation Yrotation
				JOINT RightToeBase
				{
					OFFSET -0.000002 -4.087270 -1.487650
					CHANNELS 3 Zrotation Xrotation Yrotation
					End Site
					{
						OFFSET -0.000001 -1.891870 -0.000008
					}
				}
			}
		}
	}
	JOINT LeftUpLeg
	{
		OFFSET 2.338570 -0.000001 -0.683181
		CHANNELS 3 Zrotation Xrotation Yrotation
		JOINT LeftLeg
		{
			OFFSET -0.000005 0.000007 -10.744960
			CHANNELS 3 Zrotation Xrotation Yrotation
			JOINT LeftFoot
			{
				OFFSET -0.000005 0.000007 -10.930849
				CHANNELS 3 Zrotation Xrotation Yrotation
				JOINT LeftToeBase
				{
					OFFSET -0.000002 -4.087269 -1.487650
					CHANNELS 3 Zrotation Xrotation Yrotation
					End Site
					{
						OFFSET -0.000001 -1.891870 -0.000008
					}
				}
			}
		}
	}
}
MOTION
Frames: 4
Frame Time: 0.04
-3.419572 -1.259124 24.959534 171.273305 6.581941 -3.096396 1.185636 1.588695 -4.295601 2.160263 8.061965 -10.227567 -3.219886 -4.776870 -2.630374 -18.648860 -2.449457 7.048368 7.669095 -7.572492 1.422186 13.134910 6.814693 5.585383 -2.512612 -6.199020 1.069292 9.638624 -27.203793 -47.309708 -3.002204 0.000002 0.000005 -35.899471 -46.431401 -44.193312 0.000010 0.000001 -0.000003 0.000004 0.000002 0.000002 5.683910 -6.850093 -1.788737 35.158723 -20.652634 125.713060 -4.070483 51.774678 14.928285 7.243154 27.274079 -20.238026 -0.000000 -0.000000 0.000007 -0.000005 -0.000001 -0.000001 -10.075802 -16.684699 12.489278 -0.000000 5.186696 0.000003 -7.473108 -4.493000 -4.887217 0.000002 -2.894503 0.000003 -2.793103 -24.243948 -7.177435 0.548036 6.340490 -5.784137 7.473536 -4.497656 4.887242 0.000000 4.916494 -0.000000 
-3.419572 -1.259124 24.959534 171.273305 6.581941 -3.096396 1.185636 1.588695 -4.295601 2.160263 8.061965 -10.227567 -3.219886 -4.776870 -2.630374 -18.648860 -2.449457 7.048368 7.669095 -7.572492 1.422186 13.134910 6.814693 5.585383 -2.512612 -6.199020 1.069292 9.638624 -27.203793 -47.309708 -3.002204 0.000002 0.000005 -35.899471 -46.431401 -44.193312 0.000010 0.000001 -0.000003 0.000004 0.000002 0.000002 5.683910 -6.850093 -1.788737 35.158723 -20.652634 125.713060 -4.070483 51.774678 14.928285 7.243154 27.274079 -20.238026 -0.000000 -0.000000 0.000007 -0.000005 -0.000001 -0.000001 -10.075802 -16.684699 12.489278 -0.000000 5.186696 0.000003 -7.473108 -4.493000 -4.887217 0.000002 -2.894503 0.000003 -2.793103 -24.243948 -7.177435 0.548036 6.340490 -5.784137 7.473536 -4.497656 4.887242 0.000000 4.916494 -0.000000 
-0.979712 0.662050 24.959532 171.273305 6.581941 -3.096396 0.852050 0.280689 -3.260576 1.024286 3.894215 -4.638639 -3.219885 -4.776871 -2.630372 -12.180638 -5.343632 4.781491 5.526076 -3.333570 -0.430096 12.060741 8.613943 2.019203 -2.512615 -6.199024 1.069293 14.263870 -4.296333 -69.581678 -1.183075 1.841355 -4.823860 -30.253961 -29.262272 -9.098352 6.155915 1.321019 -3.826885 3.515327 0.918449 -2.166416 5.683905 -6.850091 -1.788733 33.276969 -8.190644 93.173903 -5.653544 52.765004 18.900151 7.243161 27.274081 -20.238023 -0.000005 0.000001 -0.000002 -0.000005 0.000004 -0.000002 -9.961364 -12.847594 10.018047 1.416937 8.398922 -2.818561 -8.157930 -12.341242 -4.987699 -0.000001 -2.894503 0.000003 -3.195746 -20.422964 -10.610421 0.436020 8.152759 -9.247846 3.399980 -9.949269 1.983916 0.000001 4.916494 -0.000002 
1.460147 2.583224 24.959530 171.273318 6.581941 -3.096392 0.566097 -1.035125 -2.227415 0.714179 -0.330649 0.869385 -3.219886 -4.776870 -2.630369 -5.999125 -8.613759 2.401836 3.666271 1.028000 -2.281087 11.278775 10.563226 -1.619782 -2.512607 -6.199025 1.069294 18.889124 18.611128 -91.853641 0.636055 3.682711 -9.647730 -29.244719 -11.545781 21.038023 12.311822 2.642042 -7.653763 7.052102 1.836072 -4.333656 5.683911 -6.850093 -1.788734 31.395210 4.271344 60.634745 -7.236608 53.755334 22.872019 7.243160 27.274081 -20.238023 -0.000003 0.000006 0.000001 0.000009 -0.000001 -0.000005 -9.536306 -9.051204 7.639357 3.152452 11.477713 -5.688161 -8.885332 -20.187667 -5.191909 -0.000002 -2.894501 0.000001 -3.133144 -16.654037 -13.925746 0.550062 9.993789 -12.751984 -1.242214 -15.389588 -0.996080 0.000000 4.916494 -0.000000 
